<svg width="52" height="52" viewBox="0 0 52 52" fill="none" xmlns="http://www.w3.org/2000/svg">
<circle cx="26" cy="26" r="26" fill="#CBF1DC"/>
<ellipse cx="25" cy="44" rx="15" ry="1" fill="#074D26" fill-opacity="0.2"/>
<g clip-path="url(#clip0_601_2490)">
<path d="M16.2181 8.00011H34.0752C34.8327 8.00085 35.5589 8.30209 36.0945 8.83771C36.6301 9.37332 36.9314 10.0996 36.9321 10.857V41.1404C36.9309 41.8977 36.6296 42.6237 36.094 43.1592C35.5585 43.6947 34.8325 43.9961 34.0752 43.9973H16.2181C15.4605 43.9963 14.7342 43.695 14.1983 43.1595C13.6623 42.624 13.3605 41.8979 13.3589 41.1404V10.8525C13.3602 10.0949 13.662 9.36862 14.1979 8.83307C14.7339 8.29751 15.4604 7.99635 16.2181 7.99561" fill="white"/>
<path d="M18.0745 10.1802H32.2214C32.8224 10.1808 33.3987 10.4199 33.8237 10.8449C34.2487 11.2699 34.4877 11.8461 34.4883 12.4471V36.4434C34.4883 37.6921 33.4724 38.7046 32.227 38.7046H18.0802C17.4799 38.7046 16.9042 38.4666 16.4792 38.0427C16.0543 37.6188 15.8148 37.0436 15.8133 36.4434V12.4466C15.814 11.8456 16.0531 11.2694 16.4781 10.8445C16.903 10.4195 17.4792 10.1804 18.0802 10.1797" fill="#00C457"/>
<path d="M25.5418 10.1802H32.2209C32.8219 10.1808 33.3982 10.4198 33.8232 10.8448C34.2482 11.2698 34.4872 11.846 34.4878 12.4471V36.4433C34.4878 37.6921 33.4719 38.7046 32.2265 38.7046H18.0797C17.6224 38.7046 17.1977 38.5662 16.8427 38.3333C22.8587 30.4988 26.0801 19.9609 25.5485 10.1802" fill="#00B14F"/>
<path d="M23.2909 41.4069C23.2909 41.8989 23.4864 42.3708 23.8343 42.7187C24.1822 43.0666 24.654 43.262 25.146 43.262C25.6381 43.262 26.1099 43.0666 26.4578 42.7187C26.8057 42.3708 27.0012 41.8989 27.0012 41.4069C27.0012 40.9149 26.8057 40.443 26.4578 40.0951C26.1099 39.7472 25.6381 39.5518 25.146 39.5518C24.654 39.5518 24.1822 39.7472 23.8343 40.0951C23.4864 40.443 23.2909 40.9149 23.2909 41.4069ZM30.4381 41.4069C30.4305 41.5895 30.4599 41.7719 30.5246 41.9429C30.5893 42.1139 30.6878 42.27 30.8144 42.402C30.9409 42.5339 31.0928 42.639 31.2609 42.7108C31.4291 42.7825 31.61 42.8196 31.7928 42.8197C31.9756 42.8198 32.1566 42.783 32.3248 42.7114C32.493 42.6398 32.6451 42.535 32.7718 42.4032C32.8985 42.2714 32.9972 42.1154 33.0621 41.9444C33.127 41.7735 33.1566 41.5912 33.1493 41.4086C33.1353 41.0586 32.9864 40.7276 32.7339 40.4848C32.4814 40.2421 32.1448 40.1064 31.7945 40.1062C31.4442 40.106 31.1074 40.2412 30.8546 40.4837C30.6018 40.7261 30.4525 41.0569 30.4381 41.4069ZM19.8574 41.4069C19.8576 41.5849 19.8227 41.7612 19.7547 41.9257C19.6867 42.0903 19.5869 42.2398 19.4612 42.3658C19.3354 42.4918 19.186 42.5917 19.0216 42.66C18.8572 42.7283 18.6809 42.7635 18.5029 42.7636C18.3249 42.7638 18.1486 42.7289 17.9841 42.6609C17.8195 42.5929 17.67 42.4932 17.544 42.3674C17.418 42.2416 17.3181 42.0922 17.2498 41.9278C17.1815 41.7634 17.1463 41.5872 17.1462 41.4091C17.1459 41.0496 17.2884 40.7047 17.5424 40.4502C17.7965 40.1958 18.1411 40.0527 18.5007 40.0524C18.8602 40.0521 19.2051 40.1946 19.4596 40.4486C19.714 40.7027 19.8571 41.0473 19.8574 41.4069Z" fill="#CBD5DC"/>
<path d="M27.7601 28.2612C28.8187 27.6481 29.8796 27.0372 30.9382 26.4241C31.9968 25.8138 33.0577 25.2007 34.1157 24.5898C34.8644 24.1578 35.8325 24.7074 35.8325 25.5759V27.4535H44V31.036H35.8331V32.9159C35.8331 33.7822 34.865 34.3317 34.1163 33.8997C31.9968 32.6757 29.8801 31.4523 27.7606 30.2311C27.0209 29.8042 27.0204 28.6865 27.7601 28.2612Z" fill="#F79423"/>
</g>
<defs>
<clipPath id="clip0_601_2490">
<rect width="36" height="36" fill="white" transform="matrix(-1 0 0 1 44 8)"/>
</clipPath>
</defs>
</svg>
